:SAMPLES-PER-SECOND 30
:FULLY-SPECIFIED
:DEGREES
732
root  25.3218 35.695 0.0501997 -151.284 -80.1424 -179.542
RightUpLeg  -60.4611 -19.0555 23.7183
RightLeg  47.6218 -5.09627 -6.30758
RightFoot  -23.3823 -0.960345 -7.58354
RightToes  2.91037e-010 0 -3.6325e-017
Spine  73.0192 -3.35461 9.72397
Spine1  5.25626 3.6809 -4.84962
HEad  -45.7391 -8.98755 2.04345
LeftShoulder1  5.93662 -34.9476 -7.61495
LeftArm  -61.4988 -60.8933 36.6555
LeftForeArm  55.509 4.36336 -4.64819
LeftHand  -0.244104 0.0205437 5.32207
RightShoulder  2.8182 20.0644 3.98515
RightArm  -53.9047 59.3547 -27.3241
RightForeArm  21.8989 8.78456 5.21929
RightHand  -5.22886 14.4846 -30.1728
LeftUpLeg  -64.3893 15.7151 -3.63943
LeftLeg  77.6875 1.76412 11.1532
LeftFoot  -3.52457 -0.226249 3.59664
LeftToes  -1.10052e-010 1.3781e-010 -2.1811e-011
733
root  24.2162 36.0065 0.41627 -147.911 -79.3971 177.086
RightUpLeg  -58.4935 -19.8664 21.2896
RightLeg  47.1106 -5.26809 -6.3911
RightFoot  -23.914 -0.918413 -6.85468
RightToes  2.91037e-010 0 -3.6325e-017
Spine  73.5279 -3.20583 8.54147
Spine1  5.68113 3.56843 -5.62981
HEad  -45.8341 -8.6612 2.44221
LeftShoulder1  4.85488 -34.7446 -4.58185
LeftArm  -61.4803 -60.604 36.8294
LeftForeArm  54.7164 4.75747 -4.56104
LeftHand  -0.244104 0.0205437 5.32207
RightShoulder  2.54598 19.3365 3.07533
RightArm  -56.3559 59.8113 -28.8438
RightForeArm  21.8165 6.71151 4.84106
RightHand  -5.1375 14.2436 -30.0197
LeftUpLeg  -66.593 14.1644 -2.48295
LeftLeg  71.056 2.7343 9.71366
LeftFoot  -5.38965 -0.123355 2.95797
LeftToes  -1.10052e-010 1.3781e-010 -2.1811e-011
734
root  23.1268 36.2816 0.767827 -144.645 -79.1216 173.839
RightUpLeg  -56.6624 -20.51 18.7444
RightLeg  46.714 -5.09496 -6.10689
RightFoot  -23.9692 -0.738809 -5.20738
RightToes  2.91037e-010 0 -3.6325e-017
Spine  73.7551 -3.50369 7.47019
Spine1  6.31853 3.24559 -6.87023
HEad  -46.34 -8.16535 2.73567
LeftShoulder1  3.5097 -34.2164 -0.823689
LeftArm  -61.1048 -60.1612 36.3564
LeftForeArm  52.8152 5.06562 -4.35382
LeftHand  -0.244104 0.0205437 5.32207
RightShoulder  2.23693 18.7288 1.85321
RightArm  -58.6147 60.4141 -30.1669
RightForeArm  21.3766 4.12596 4.41241
RightHand  -5.0807 13.9859 -30.0794
LeftUpLeg  -68.6136 14.1571 -3.44683
LeftLeg  62.3465 4.79503 10.3656
LeftFoot  -7.29612 0.0118592 0.825799
LeftToes  -1.10052e-010 1.3781e-010 -2.1811e-011
735
root  21.9954 36.5151 1.104 -141.423 -79.3525 170.815
RightUpLeg  -54.8225 -21.0458 16.4356
RightLeg  46.1972 -5.38035 -6.30555
RightFoot  -24.253 -0.52649 -3.20133
RightToes  2.91037e-010 0 -3.6325e-017
Spine  73.6378 -3.93139 6.65163
Spine1  7.1195 2.97235 -7.90804
HEad  -47.0035 -7.68426 2.88674
LeftShoulder1  2.37048 -33.6829 2.44204
LeftArm  -60.9606 -59.9226 35.5492
LeftForeArm  50.3816 5.02913 -4.04812
LeftHand  -0.244104 0.0205437 5.32207
RightShoulder  2.00976 18.1544 0.972405
RightArm  -60.5998 60.8668 -30.9702
RightForeArm  21.0663 2.29319 3.95461
RightHand  -4.99506 13.685 -30.0423
LeftUpLeg  -70.2147 15.3913 -7.13785
LeftLeg  51.6197 7.37336 10.3943
LeftFoot  -8.39184 0.1081 -2.04565
LeftToes  -1.10052e-010 1.3781e-010 -2.1811e-011
736
root  20.7418 36.6229 1.48745 -140.262 -79.6172 169.931
RightUpLeg  -52.9582 -21.5103 14.6284
RightLeg  46.1146 -6.47013 -7.48296
RightFoot  -24.9638 -0.457639 -2.41259
RightToes  2.91037e-010 0 -3.6325e-017
Spine  73.2774 -4.24745 6.19292
Spine1  8.00546 2.9472 -8.70301
HEad  -47.2973 -7.38292 2.84748
LeftShoulder1  1.71586 -33.215 4.35102
LeftArm  -61.1984 -60.2044 34.7821
LeftForeArm  48.6796 4.63964 -3.83887
LeftHand  -0.244104 0.0205437 5.32207
RightShoulder  1.91695 17.7189 0.693795
RightArm  -61.773 61.168 -30.9653
RightForeArm  20.9467 1.15761 3.55781
RightHand  -5.02443 13.7531 -30.1064
LeftUpLeg  -70.8377 17.5842 -13.4581
LeftLeg  39.8167 7.42249 7.06453
LeftFoot  -6.80234 0.199297 -3.99469
LeftToes  -1.10052e-010 1.3781e-010 -2.1811e-011
737
root  19.3542 36.5413 1.98483 -143.056 -79.6719 172.465
RightUpLeg  -50.9582 -22.4408 13.0626
RightLeg  47.3925 -6.71422 -8.0773
RightFoot  -25.756 -0.314296 -1.1437
RightToes  2.91037e-010 0 -3.6325e-017
Spine  73.0611 -4.68302 6.05107
Spine1  9.00741 2.97886 -9.70574
HEad  -47.0783 -6.97501 2.82657
LeftShoulder1  1.20042 -32.1957 5.82514
LeftArm  -61.2123 -60.903 33.8553
LeftForeArm  47.8825 4.1336 -3.85385
LeftHand  -0.244104 0.0205437 5.32207
RightShoulder  1.8766 17.6316 0.520052
RightArm  -62.0642 61.4675 -30.1605
RightForeArm  20.69 0.0517878 3.25685
RightHand  -5.22686 14.2584 -30.4892
LeftUpLeg  -70.3995 19.7625 -19.5875
LeftLeg  31.7204 4.66349 3.3924
LeftFoot  -2.78434 0.176804 -2.35272
LeftToes  -1.10052e-010 1.3781e-010 -2.1811e-011
738
root  17.9401 36.3442 2.55835 -147.914 -79.6005 176.155
RightUpLeg  -49.1129 -23.965 11.1047
RightLeg  50.7186 -5.58138 -7.61543
RightFoot  -25.3842 0.199737 3.13415
RightToes  2.91037e-010 0 -3.6325e-017
Spine  73.4175 -5.22283 5.89871
Spine1  9.83844 2.88543 -10.7322
HEad  -46.6225 -6.31294 3.11043
LeftShoulder1  0.654456 -30.6272 7.44368
LeftArm  -60.7674 -61.8738 32.5441
LeftForeArm  47.6177 3.81872 -4.01642
LeftHand  -0.244104 0.0205437 5.32207
RightShoulder  1.88128 17.9886 0.374364
RightArm  -61.5386 61.6035 -28.6675
RightForeArm  20.5602 -0.853353 3.00684
RightHand  -5.34789 14.5325 -30.75
LeftUpLeg  -69.0758 19.9933 -20.7867
LeftLeg  31.7639 3.83461 2.93391
LeftFoot  -0.382529 -0.194296 2.19295
LeftToes  -1.10052e-010 1.3781e-010 -2.1811e-011
739
root  16.5719 36.1325 3.1388 -153.619 -79.0832 -179.778
RightUpLeg  -48.5511 -24.5281 8.67654
RightLeg  56.7178 -5.19083 -9.00471
RightFoot  -21.1241 0.478927 7.39482
RightToes  2.91037e-010 0 -3.6325e-017
Spine  74.1158 -5.21202 5.72881
Spine1  9.8587 2.86021 -11.0786
HEad  -46.4074 -5.74341 3.39652
LeftShoulder1  0.478125 -29.5505 7.96642
LeftArm  -60.7485 -63.1896 31.5236
LeftForeArm  48.0405 3.69072 -4.18589
LeftHand  -0.244104 0.0205437 5.32207
RightShoulder  1.96326 18.6256 0.505007
RightArm  -60.152 61.2255 -26.6526
RightForeArm  21.1965 -1.17801 2.76409
RightHand  -5.19012 14.1488 -30.4461
LeftUpLeg  -67.1663 18.4537 -17.3563
LeftLeg  37.5483 5.97189 5.30743
LeftFoot  -2.41459 -0.371417 4.9003
LeftToes  -1.10052e-010 1.3781e-010 -2.1811e-011
740
root  15.2474 35.9587 3.70831 -158.76 -77.7976 -175.941
RightUpLeg  -50.4069 -22.4117 6.06069
RightLeg  64.5126 -5.72164 -13.5228
RightFoot  -11.0894 0.000113244 5.3153
RightToes  2.91037e-010 0 -3.6325e-017
Spine  74.624 -4.45085 5.72566
Spine1  8.972 3.30142 -10.782
HEad  -46.752 -5.64881 2.8517
LeftShoulder1  1.08963 -29.8383 5.92802
LeftArm  -62.0237 -64.7735 31.8768
LeftForeArm  49.4689 3.48599 -4.37124
LeftHand  -0.244104 0.0205437 5.32207
RightShoulder  2.00835 19.1996 0.47425
RightArm  -58.1763 60.3342 -24.424
RightForeArm  22.4996 -1.44133 2.49073
RightHand  -4.96481 13.642 -29.9354
LeftUpLeg  -65.4908 17.2734 -14.2607
LeftLeg  43.6323 7.78105 8.25493
LeftFoot  -7.04674 -0.110087 3.84358
LeftToes  -1.10052e-010 1.3781e-010 -2.1811e-011
741
root  13.9663 35.8261 4.23906 -160.747 -76.3811 -174.713
RightUpLeg  -53.9478 -18.0293 3.15232
RightLeg  71.0409 -4.76373 -15.8564
RightFoot  0.402315 0.218791 -2.24481
RightToes  2.91037e-010 0 -3.6325e-017
Spine  74.8879 -3.64099 5.71647
Spine1  7.84906 4.18141 -10.5581
HEad  -47.52 -5.92247 1.33326
LeftShoulder1  2.33527 -31.1647 2.02528
LeftArm  -64.0951 -66.1608 33.5479
LeftForeArm  51.4121 3.26054 -4.6351
LeftHand  -0.244104 0.0205437 5.32207
RightShoulder  1.88116 19.488 -0.282512
RightArm  -56.5845 59.3995 -22.638
RightForeArm  23.6718 -2.28534 2.14849
RightHand  -4.9515 13.6758 -29.8083
LeftUpLeg  -63.9224 16.5358 -13.1535
LeftLeg  47.5152 8.84129 10.6073
LeftFoot  -11.2913 0.071484 2.06125
LeftToes  -1.10052e-010 1.3781e-010 -2.1811e-011
742
root  12.6809 35.7445 4.6889 -161.939 -75.6403 -174
RightUpLeg  -57.5474 -13.3332 0.936533
RightLeg  74.5469 -2.86588 -12.8728
RightFoot  5.24558 1.03034 -7.01851
RightToes  2.91037e-010 0 -3.6325e-017
Spine  75.2218 -3.51251 6.20559
Spine1  7.20675 4.86204 -10.2579
HEad  -48.2766 -6.09785 -0.0243751
LeftShoulder1  3.37917 -32.6102 -0.916194
LeftArm  -65.6091 -66.7784 35.0477
LeftForeArm  52.705 3.47376 -4.76663
LeftHand  -0.244104 0.0205437 5.32207
RightShoulder  1.6934 19.5434 -1.23072
RightArm  -56.4256 58.876 -22.2659
RightForeArm  24.2645 -3.37056 1.79205
RightHand  -5.04924 13.9901 -29.8981
LeftUpLeg  -62.1682 16.0158 -12.9766
LeftLeg  49.9179 9.50226 12.3151
LeftFoot  -14.2951 0.139362 1.97115
LeftToes  -1.10052e-010 1.3781e-010 -2.1811e-011
